<svg width="168" height="43" viewBox="0 0 168 43" fill="none" xmlns="http://www.w3.org/2000/svg">
<path d="M44.0189 32V12.316H47.8269V32H44.0189ZM46.8189 23.936V20.548H56.7309V23.936H46.8189ZM46.8189 15.676V12.316H57.2069V15.676H46.8189ZM59.8144 32V18.476H63.4824V32H59.8144ZM63.4824 24.524L62.0544 23.572C62.2224 21.9107 62.7078 20.604 63.5104 19.652C64.3131 18.6813 65.4704 18.196 66.9824 18.196C67.6358 18.196 68.2238 18.308 68.7464 18.532C69.2691 18.7373 69.7451 19.0827 70.1744 19.568L67.8784 22.2C67.6731 21.976 67.4211 21.808 67.1224 21.696C66.8424 21.584 66.5158 21.528 66.1424 21.528C65.3584 21.528 64.7144 21.78 64.2104 22.284C63.7251 22.7693 63.4824 23.516 63.4824 24.524ZM77.436 32.28C76.0734 32.28 74.8414 31.972 73.74 31.356C72.6574 30.7213 71.7894 29.872 71.136 28.808C70.5014 27.7253 70.184 26.5213 70.184 25.196C70.184 23.8707 70.5014 22.6853 71.136 21.64C71.7707 20.576 72.6387 19.736 73.74 19.12C74.8414 18.4853 76.064 18.168 77.408 18.168C78.7894 18.168 80.0214 18.4853 81.104 19.12C82.2054 19.736 83.0734 20.576 83.708 21.64C84.3427 22.6853 84.66 23.8707 84.66 25.196C84.66 26.5213 84.3427 27.7253 83.708 28.808C83.0734 29.872 82.2054 30.7213 81.104 31.356C80.0214 31.972 78.7987 32.28 77.436 32.28ZM77.408 28.864C78.0987 28.864 78.7054 28.7147 79.228 28.416C79.7694 28.0987 80.18 27.6693 80.46 27.128C80.7587 26.568 80.908 25.9333 80.908 25.224C80.908 24.5147 80.7587 23.8893 80.46 23.348C80.1614 22.8067 79.7507 22.3867 79.228 22.088C78.7054 21.7707 78.0987 21.612 77.408 21.612C76.736 21.612 76.1387 21.7707 75.616 22.088C75.0934 22.3867 74.6827 22.8067 74.384 23.348C74.0854 23.8893 73.936 24.5147 73.936 25.224C73.936 25.9333 74.0854 26.568 74.384 27.128C74.6827 27.6693 75.0934 28.0987 75.616 28.416C76.1387 28.7147 76.736 28.864 77.408 28.864ZM91.6695 32.308C90.9041 32.308 90.1481 32.2053 89.4015 32C88.6735 31.7947 88.0015 31.5147 87.3855 31.16C86.7695 30.7867 86.2375 30.3387 85.7895 29.816L87.9735 27.604C88.4401 28.1267 88.9815 28.5187 89.5975 28.78C90.2135 29.0413 90.8948 29.172 91.6415 29.172C92.2388 29.172 92.6868 29.088 92.9855 28.92C93.3028 28.752 93.4615 28.5 93.4615 28.164C93.4615 27.7907 93.2935 27.5013 92.9575 27.296C92.6401 27.0907 92.2201 26.9227 91.6975 26.792C91.1748 26.6427 90.6241 26.484 90.0455 26.316C89.4855 26.1293 88.9441 25.896 88.4215 25.616C87.8988 25.3173 87.4695 24.916 87.1335 24.412C86.8161 23.8893 86.6575 23.2173 86.6575 22.396C86.6575 21.5373 86.8628 20.7907 87.2735 20.156C87.7028 19.5213 88.3095 19.0267 89.0935 18.672C89.8775 18.3173 90.8015 18.14 91.8655 18.14C92.9855 18.14 93.9935 18.336 94.8895 18.728C95.8041 19.12 96.5601 19.708 97.1575 20.492L94.9455 22.704C94.5348 22.2 94.0681 21.836 93.5455 21.612C93.0415 21.388 92.4908 21.276 91.8935 21.276C91.3521 21.276 90.9321 21.36 90.6335 21.528C90.3535 21.696 90.2135 21.9293 90.2135 22.228C90.2135 22.564 90.3721 22.8253 90.6895 23.012C91.0255 23.1987 91.4548 23.3667 91.9775 23.516C92.5001 23.6467 93.0415 23.8053 93.6015 23.992C94.1801 24.16 94.7215 24.4027 95.2255 24.72C95.7481 25.0373 96.1681 25.4573 96.4855 25.98C96.8215 26.5027 96.9895 27.1747 96.9895 27.996C96.9895 29.3213 96.5135 30.376 95.5615 31.16C94.6095 31.9253 93.3121 32.308 91.6695 32.308ZM101.451 32V12.848H105.119V32H101.451ZM98.2869 21.696V18.476H108.283V21.696H98.2869ZM111.909 32.28C111.237 32.28 110.686 32.056 110.257 31.608C109.827 31.16 109.613 30.6093 109.613 29.956C109.613 29.3027 109.827 28.752 110.257 28.304C110.686 27.856 111.237 27.632 111.909 27.632C112.562 27.632 113.103 27.856 113.533 28.304C113.962 28.752 114.177 29.3027 114.177 29.956C114.177 30.6093 113.962 31.16 113.533 31.608C113.103 32.056 112.562 32.28 111.909 32.28ZM122.892 32.28C121.66 32.28 120.55 31.972 119.56 31.356C118.571 30.74 117.796 29.9 117.236 28.836C116.676 27.772 116.396 26.5773 116.396 25.252C116.396 23.908 116.676 22.704 117.236 21.64C117.796 20.576 118.571 19.736 119.56 19.12C120.55 18.504 121.66 18.196 122.892 18.196C123.863 18.196 124.731 18.392 125.496 18.784C126.262 19.176 126.868 19.7267 127.316 20.436C127.783 21.1267 128.035 21.9107 128.072 22.788V27.66C128.035 28.556 127.783 29.3493 127.316 30.04C126.868 30.7307 126.262 31.2813 125.496 31.692C124.731 32.084 123.863 32.28 122.892 32.28ZM123.564 28.892C124.591 28.892 125.422 28.556 126.056 27.884C126.691 27.1933 127.008 26.3067 127.008 25.224C127.008 24.5147 126.859 23.8893 126.56 23.348C126.28 22.788 125.879 22.3587 125.356 22.06C124.852 21.7427 124.255 21.584 123.564 21.584C122.892 21.584 122.295 21.7427 121.772 22.06C121.268 22.3587 120.867 22.788 120.568 23.348C120.288 23.8893 120.148 24.5147 120.148 25.224C120.148 25.952 120.288 26.596 120.568 27.156C120.867 27.6973 121.268 28.1267 121.772 28.444C122.295 28.7427 122.892 28.892 123.564 28.892ZM126.812 32V28.36L127.4 25.056L126.812 21.808V18.476H130.452V32H126.812ZM133.697 32V18.476H137.393V32H133.697ZM135.545 16.292C134.948 16.292 134.453 16.096 134.061 15.704C133.669 15.2933 133.473 14.7893 133.473 14.192C133.473 13.6133 133.669 13.1187 134.061 12.708C134.453 12.2973 134.948 12.092 135.545 12.092C136.161 12.092 136.656 12.2973 137.029 12.708C137.421 13.1187 137.617 13.6133 137.617 14.192C137.617 14.7893 137.421 15.2933 137.029 15.704C136.656 16.096 136.161 16.292 135.545 16.292Z" fill="#5044E5"/>
<path d="M8.63281 8.00185L15.868 14.1806C16.2975 14.5474 16.5453 15.0858 16.5454 15.6529L16.5463 20.3106L9.31106 14.1319C8.88153 13.7651 8.6339 13.2267 8.63378 12.6596L8.63281 8.00185Z" fill="#5044E5"/>
<path d="M8.63864 36.0017L15.8713 29.8199C16.3007 29.453 16.5481 28.9145 16.548 28.3474L16.547 23.6897L9.31434 29.8714C8.88496 30.2384 8.63755 30.7769 8.63767 31.344L8.63864 36.0017Z" fill="#5044E5"/>
<path d="M0.00135661 14.5202L7.1382 20.5809C7.4842 20.8748 7.9223 21.0359 8.37499 21.0358L14.1295 21.0346L7.01026 14.9753C6.664 14.6806 6.22523 14.5189 5.77182 14.519L0.00135661 14.5202Z" fill="#5044E5"/>
<path d="M0.00447211 29.4858L7.0949 23.4256C7.44141 23.1295 7.88105 22.9668 8.33556 22.9667L14.1471 22.9655L7.01276 29.0291C6.66686 29.3231 6.22881 29.4845 5.77613 29.4846L0.00447211 29.4858Z" fill="#5044E5"/>
<path d="M26.3719 7.99815L19.1392 14.1799C18.7098 14.5469 18.4624 15.0854 18.4625 15.6525L18.4635 20.3102L25.6961 14.1285C26.1255 13.7615 26.373 13.223 26.3729 12.6559L26.3719 7.99815Z" fill="#5044E5"/>
<path d="M26.3777 35.998L19.1425 29.8193C18.7129 29.4525 18.4653 28.9141 18.4652 28.347L18.4642 23.6893L25.6994 29.868C26.1289 30.2348 26.3766 30.7732 26.3768 31.3403L26.3777 35.998Z" fill="#5044E5"/>
<path d="M34.9665 14.4346L27.9001 20.5772C27.5575 20.8751 27.1212 21.0412 26.6686 21.0463L20.9144 21.1115L27.9634 14.9705C28.3061 14.6718 28.7431 14.5051 29.1964 14.5L34.9665 14.4346Z" fill="#5044E5"/>
<path d="M35.004 29.4785L27.9111 23.4213C27.5644 23.1253 27.1247 22.9628 26.6702 22.9629L20.8587 22.9641L27.9955 29.0247C28.3416 29.3186 28.7797 29.4798 29.2323 29.4797L35.004 29.4785Z" fill="#5044E5"/>
</svg>
